<?xml version="1.0" encoding="UTF-8" standalone="no"?>
<!DOCTYPE svg PUBLIC "-//W3C//DTD SVG 1.1//EN"
 "http://www.w3.org/Graphics/SVG/1.1/DTD/svg11.dtd">
<!-- Generated by graphviz version 12.2.1 (20241206.2353)
 -->
<!-- Title: Pipeline3Flow Pages: 1 -->
<svg width="1303pt" height="1041pt"
 viewBox="0.00 0.00 1302.75 1041.00" xmlns="http://www.w3.org/2000/svg" xmlns:xlink="http://www.w3.org/1999/xlink">
<g id="graph0" class="graph" transform="scale(1 1) rotate(0) translate(4 1037)">
<title>Pipeline3Flow</title>
<polygon fill="white" stroke="none" points="-4,4 -4,-1037 1298.75,-1037 1298.75,4 -4,4"/>
<g id="clust1" class="cluster">
<title>cluster_elicit</title>
<polygon fill="lightgrey" stroke="lightgrey" points="8,-549 8,-626 159.25,-626 159.25,-549 8,-549"/>
<text text-anchor="middle" x="83.62" y="-608.7" font-family="Helvetica,sans-Serif" font-size="14.00">ELICIT (Data)</text>
</g>
<g id="clust2" class="cluster">
<title>cluster_augment</title>
<polygon fill="lightgrey" stroke="lightgrey" points="229.25,-438 229.25,-737 359.5,-737 359.5,-438 229.25,-438"/>
<text text-anchor="middle" x="294.38" y="-719.7" font-family="Helvetica,sans-Serif" font-size="14.00">AUGMENT</text>
</g>
<g id="clust3" class="cluster">
<title>cluster_act2</title>
<polygon fill="lightgrey" stroke="lightgrey" points="429.5,-8 429.5,-1025 665.25,-1025 665.25,-8 429.5,-8"/>
<text text-anchor="middle" x="547.38" y="-1007.7" font-family="Helvetica,sans-Serif" font-size="14.00">ACT II — 14 Methods (from&#45;scratch)</text>
</g>
<g id="clust4" class="cluster">
<title>cluster_act3</title>
<polygon fill="lightgrey" stroke="lightgrey" points="735.25,-566 735.25,-970 882.5,-970 882.5,-566 735.25,-566"/>
<text text-anchor="middle" x="808.88" y="-952.7" font-family="Helvetica,sans-Serif" font-size="14.00">ACT III — Generation</text>
</g>
<g id="clust5" class="cluster">
<title>cluster_output</title>
<polygon fill="lightgrey" stroke="lightgrey" points="952.5,-737 952.5,-814 1286.75,-814 1286.75,-737 952.5,-737"/>
<text text-anchor="middle" x="1119.62" y="-796.7" font-family="Helvetica,sans-Serif" font-size="14.00">OUTPUT</text>
</g>
<!-- elicit_324 -->
<g id="node1" class="node">
<title>elicit_324</title>
<path fill="#4a90e2" stroke="#4a90e2" d="M139.25,-595C139.25,-595 28,-595 28,-595 22,-595 16,-589 16,-583 16,-583 16,-569 16,-569 16,-563 22,-557 28,-557 28,-557 139.25,-557 139.25,-557 145.25,-557 151.25,-563 151.25,-569 151.25,-569 151.25,-583 151.25,-583 151.25,-589 145.25,-595 139.25,-595"/>
<text text-anchor="middle" x="83.62" y="-577.7" font-family="Helvetica,sans-Serif" font-size="14.00" fill="white">324 Ratings</text>
<text text-anchor="middle" x="83.62" y="-562.7" font-family="Helvetica,sans-Serif" font-size="14.00" fill="white">(from Minerva user)</text>
</g>
<!-- aug_ml -->
<g id="node2" class="node">
<title>aug_ml</title>
<path fill="#7ed321" stroke="#7ed321" d="M339.5,-484C339.5,-484 249.25,-484 249.25,-484 243.25,-484 237.25,-478 237.25,-472 237.25,-472 237.25,-458 237.25,-458 237.25,-452 243.25,-446 249.25,-446 249.25,-446 339.5,-446 339.5,-446 345.5,-446 351.5,-452 351.5,-458 351.5,-458 351.5,-472 351.5,-472 351.5,-478 345.5,-484 339.5,-484"/>
<text text-anchor="middle" x="294.38" y="-466.7" font-family="Helvetica,sans-Serif" font-size="14.00">MovieLens Twin</text>
<text text-anchor="middle" x="294.38" y="-451.7" font-family="Helvetica,sans-Serif" font-size="14.00">(51K)</text>
</g>
<!-- elicit_324&#45;&gt;aug_ml -->
<g id="edge1" class="edge">
<title>elicit_324&#45;&gt;aug_ml</title>
<path fill="none" stroke="black" d="M83.75,-556.67C83.75,-524.86 83.75,-465 83.75,-465 83.75,-465 225.31,-465 225.31,-465"/>
<polygon fill="black" stroke="black" points="225.31,-468.5 235.31,-465 225.31,-461.5 225.31,-468.5"/>
</g>
<!-- aug_gm -->
<g id="node3" class="node">
<title>aug_gm</title>
<path fill="#7ed321" stroke="#7ed321" d="M338.75,-558C338.75,-558 250,-558 250,-558 244,-558 238,-552 238,-546 238,-546 238,-532 238,-532 238,-526 244,-520 250,-520 250,-520 338.75,-520 338.75,-520 344.75,-520 350.75,-526 350.75,-532 350.75,-532 350.75,-546 350.75,-546 350.75,-552 344.75,-558 338.75,-558"/>
<text text-anchor="middle" x="294.38" y="-540.7" font-family="Helvetica,sans-Serif" font-size="14.00">GenMatch (GA)</text>
<text text-anchor="middle" x="294.38" y="-525.7" font-family="Helvetica,sans-Serif" font-size="14.00">(5K)</text>
</g>
<!-- elicit_324&#45;&gt;aug_gm -->
<g id="edge2" class="edge">
<title>elicit_324&#45;&gt;aug_gm</title>
<path fill="none" stroke="black" d="M151.44,-566C198.49,-566 252.75,-566 252.75,-566 252.75,-566 252.75,-565.23 252.75,-565.23"/>
<polygon fill="black" stroke="black" points="256.25,-569.85 252.75,-559.85 249.25,-569.85 256.25,-569.85"/>
</g>
<!-- aug_tvae -->
<g id="node4" class="node">
<title>aug_tvae</title>
<path fill="#7ed321" stroke="#7ed321" d="M309.38,-632C309.38,-632 279.38,-632 279.38,-632 273.38,-632 267.38,-626 267.38,-620 267.38,-620 267.38,-606 267.38,-606 267.38,-600 273.38,-594 279.38,-594 279.38,-594 309.38,-594 309.38,-594 315.38,-594 321.38,-600 321.38,-606 321.38,-606 321.38,-620 321.38,-620 321.38,-626 315.38,-632 309.38,-632"/>
<text text-anchor="middle" x="294.38" y="-614.7" font-family="Helvetica,sans-Serif" font-size="14.00">TVAE</text>
<text text-anchor="middle" x="294.38" y="-599.7" font-family="Helvetica,sans-Serif" font-size="14.00">(5K)</text>
</g>
<!-- elicit_324&#45;&gt;aug_tvae -->
<g id="edge3" class="edge">
<title>elicit_324&#45;&gt;aug_tvae</title>
<path fill="none" stroke="black" d="M151.59,-587.33C213.31,-587.33 294.75,-587.33 294.75,-587.33 294.75,-587.33 294.75,-587.95 294.75,-587.95"/>
<polygon fill="black" stroke="black" points="291.25,-582.03 294.75,-592.03 298.25,-582.03 291.25,-582.03"/>
</g>
<!-- aug_cvae -->
<g id="node5" class="node">
<title>aug_cvae</title>
<path fill="#7ed321" stroke="#7ed321" d="M309.38,-706C309.38,-706 279.38,-706 279.38,-706 273.38,-706 267.38,-700 267.38,-694 267.38,-694 267.38,-680 267.38,-680 267.38,-674 273.38,-668 279.38,-668 279.38,-668 309.38,-668 309.38,-668 315.38,-668 321.38,-674 321.38,-680 321.38,-680 321.38,-694 321.38,-694 321.38,-700 315.38,-706 309.38,-706"/>
<text text-anchor="middle" x="294.38" y="-688.7" font-family="Helvetica,sans-Serif" font-size="14.00">CVAE</text>
<text text-anchor="middle" x="294.38" y="-673.7" font-family="Helvetica,sans-Serif" font-size="14.00">(2.5K)</text>
</g>
<!-- elicit_324&#45;&gt;aug_cvae -->
<g id="edge4" class="edge">
<title>elicit_324&#45;&gt;aug_cvae</title>
<path fill="none" stroke="black" d="M83.75,-595.33C83.75,-627.14 83.75,-687 83.75,-687 83.75,-687 255.76,-687 255.76,-687"/>
<polygon fill="black" stroke="black" points="255.76,-690.5 265.76,-687 255.76,-683.5 255.76,-690.5"/>
</g>
<!-- m_gp -->
<g id="node6" class="node">
<title>m_gp</title>
<path fill="#ff9800" stroke="#ff9800" d="M561.88,-52C561.88,-52 531.88,-52 531.88,-52 525.88,-52 519.88,-46 519.88,-40 519.88,-40 519.88,-28 519.88,-28 519.88,-22 525.88,-16 531.88,-16 531.88,-16 561.88,-16 561.88,-16 567.88,-16 573.88,-22 573.88,-28 573.88,-28 573.88,-40 573.88,-40 573.88,-46 567.88,-52 561.88,-52"/>
<text text-anchor="middle" x="546.88" y="-28.2" font-family="Helvetica,sans-Serif" font-size="14.00">GP</text>
</g>
<!-- aug_ml&#45;&gt;m_gp -->
<g id="edge5" class="edge">
<title>aug_ml&#45;&gt;m_gp</title>
<path fill="none" stroke="black" d="M275.75,-445.64C275.75,-361.78 275.75,-34 275.75,-34 275.75,-34 507.87,-34 507.87,-34"/>
<polygon fill="black" stroke="black" points="507.87,-37.5 517.87,-34 507.87,-30.5 507.87,-37.5"/>
</g>
<!-- m_conformal -->
<g id="node14" class="node">
<title>m_conformal</title>
<path fill="#e91e63" stroke="#e91e63" d="M574.38,-124C574.38,-124 519.38,-124 519.38,-124 513.38,-124 507.38,-118 507.38,-112 507.38,-112 507.38,-100 507.38,-100 507.38,-94 513.38,-88 519.38,-88 519.38,-88 574.38,-88 574.38,-88 580.38,-88 586.38,-94 586.38,-100 586.38,-100 586.38,-112 586.38,-112 586.38,-118 580.38,-124 574.38,-124"/>
<text text-anchor="middle" x="546.88" y="-100.2" font-family="Helvetica,sans-Serif" font-size="14.00">Conformal</text>
</g>
<!-- aug_ml&#45;&gt;m_conformal -->
<g id="edge10" class="edge">
<title>aug_ml&#45;&gt;m_conformal</title>
<path fill="none" stroke="black" d="M313.75,-445.7C313.75,-371.13 313.75,-106 313.75,-106 313.75,-106 495.55,-106 495.55,-106"/>
<polygon fill="black" stroke="black" points="495.55,-109.5 505.55,-106 495.55,-102.5 495.55,-109.5"/>
</g>
<!-- m_genmatch2 -->
<g id="node19" class="node">
<title>m_genmatch2</title>
<path fill="#e91e63" stroke="#e91e63" d="M574.75,-558C574.75,-558 519,-558 519,-558 513,-558 507,-552 507,-546 507,-546 507,-532 507,-532 507,-526 513,-520 519,-520 519,-520 574.75,-520 574.75,-520 580.75,-520 586.75,-526 586.75,-532 586.75,-532 586.75,-546 586.75,-546 586.75,-552 580.75,-558 574.75,-558"/>
<text text-anchor="middle" x="546.88" y="-540.7" font-family="Helvetica,sans-Serif" font-size="14.00">GenMatch</text>
<text text-anchor="middle" x="546.88" y="-525.7" font-family="Helvetica,sans-Serif" font-size="14.00">(Causal)</text>
</g>
<!-- aug_gm&#45;&gt;m_genmatch2 -->
<g id="edge6" class="edge">
<title>aug_gm&#45;&gt;m_genmatch2</title>
<path fill="none" stroke="black" d="M351.04,-539C351.04,-539 495.37,-539 495.37,-539"/>
<polygon fill="black" stroke="black" points="495.37,-542.5 505.37,-539 495.37,-535.5 495.37,-542.5"/>
</g>
<!-- m_kalman -->
<g id="node7" class="node">
<title>m_kalman</title>
<path fill="#ff9800" stroke="#ff9800" d="M566.12,-704C566.12,-704 527.62,-704 527.62,-704 521.62,-704 515.62,-698 515.62,-692 515.62,-692 515.62,-680 515.62,-680 515.62,-674 521.62,-668 527.62,-668 527.62,-668 566.12,-668 566.12,-668 572.12,-668 578.12,-674 578.12,-680 578.12,-680 578.12,-692 578.12,-692 578.12,-698 572.12,-704 566.12,-704"/>
<text text-anchor="middle" x="546.88" y="-680.2" font-family="Helvetica,sans-Serif" font-size="14.00">Kalman</text>
</g>
<!-- aug_tvae&#45;&gt;m_kalman -->
<g id="edge7" class="edge">
<title>aug_tvae&#45;&gt;m_kalman</title>
<path fill="none" stroke="black" d="M321.74,-606.67C329.44,-606.67 335.75,-606.67 335.75,-606.67 335.75,-606.67 335.75,-686 335.75,-686 335.75,-686 503.75,-686 503.75,-686"/>
<polygon fill="black" stroke="black" points="503.75,-689.5 513.75,-686 503.75,-682.5 503.75,-689.5"/>
</g>
<!-- m_bnn -->
<g id="node15" class="node">
<title>m_bnn</title>
<path fill="#e91e63" stroke="#e91e63" d="M579.62,-632C579.62,-632 514.12,-632 514.12,-632 508.12,-632 502.12,-626 502.12,-620 502.12,-620 502.12,-606 502.12,-606 502.12,-600 508.12,-594 514.12,-594 514.12,-594 579.62,-594 579.62,-594 585.62,-594 591.62,-600 591.62,-606 591.62,-606 591.62,-620 591.62,-620 591.62,-626 585.62,-632 579.62,-632"/>
<text text-anchor="middle" x="546.88" y="-614.7" font-family="Helvetica,sans-Serif" font-size="14.00">MC Dropout</text>
<text text-anchor="middle" x="546.88" y="-599.7" font-family="Helvetica,sans-Serif" font-size="14.00">BNN</text>
</g>
<!-- aug_tvae&#45;&gt;m_bnn -->
<g id="edge9" class="edge">
<title>aug_tvae&#45;&gt;m_bnn</title>
<path fill="none" stroke="black" d="M321.4,-619.33C321.4,-619.33 490.3,-619.33 490.3,-619.33"/>
<polygon fill="black" stroke="black" points="490.3,-622.83 500.3,-619.33 490.3,-615.83 490.3,-622.83"/>
</g>
<!-- m_hmm -->
<g id="node13" class="node">
<title>m_hmm</title>
<path fill="#ff9800" stroke="#ff9800" d="M561.88,-922C561.88,-922 531.88,-922 531.88,-922 525.88,-922 519.88,-916 519.88,-910 519.88,-910 519.88,-898 519.88,-898 519.88,-892 525.88,-886 531.88,-886 531.88,-886 561.88,-886 561.88,-886 567.88,-886 573.88,-892 573.88,-898 573.88,-898 573.88,-910 573.88,-910 573.88,-916 567.88,-922 561.88,-922"/>
<text text-anchor="middle" x="546.88" y="-898.2" font-family="Helvetica,sans-Serif" font-size="14.00">HMM</text>
</g>
<!-- aug_cvae&#45;&gt;m_hmm -->
<g id="edge8" class="edge">
<title>aug_cvae&#45;&gt;m_hmm</title>
<path fill="none" stroke="black" d="M294.75,-706.26C294.75,-759.37 294.75,-904 294.75,-904 294.75,-904 507.9,-904 507.9,-904"/>
<polygon fill="black" stroke="black" points="507.9,-907.5 517.9,-904 507.9,-900.5 507.9,-907.5"/>
</g>
<!-- gen_sdxl -->
<g id="node20" class="node">
<title>gen_sdxl</title>
<path fill="#9c27b0" stroke="#9c27b0" d="M842.62,-790.5C842.62,-790.5 774.12,-790.5 774.12,-790.5 768.12,-790.5 762.12,-784.5 762.12,-778.5 762.12,-778.5 762.12,-749.5 762.12,-749.5 762.12,-743.5 768.12,-737.5 774.12,-737.5 774.12,-737.5 842.62,-737.5 842.62,-737.5 848.62,-737.5 854.62,-743.5 854.62,-749.5 854.62,-749.5 854.62,-778.5 854.62,-778.5 854.62,-784.5 848.62,-790.5 842.62,-790.5"/>
<text text-anchor="middle" x="808.38" y="-773.2" font-family="Helvetica,sans-Serif" font-size="14.00" fill="white">SDXL</text>
<text text-anchor="middle" x="808.38" y="-758.2" font-family="Helvetica,sans-Serif" font-size="14.00" fill="white">DreamBooth</text>
<text text-anchor="middle" x="808.38" y="-743.2" font-family="Helvetica,sans-Serif" font-size="14.00" fill="white">(scenes)</text>
</g>
<!-- m_kalman&#45;&gt;gen_sdxl -->
<g id="edge11" class="edge">
<title>m_kalman&#45;&gt;gen_sdxl</title>
<path fill="none" stroke="black" d="M578.48,-684.75C616.35,-684.75 674.75,-684.75 674.75,-684.75 674.75,-684.75 674.75,-759 674.75,-759 674.75,-759 750.13,-759 750.13,-759"/>
<polygon fill="black" stroke="black" points="750.13,-762.5 760.13,-759 750.13,-755.5 750.13,-762.5"/>
</g>
<!-- m_rts -->
<g id="node8" class="node">
<title>m_rts</title>
<path fill="#ff9800" stroke="#ff9800" d="M561.88,-196C561.88,-196 531.88,-196 531.88,-196 525.88,-196 519.88,-190 519.88,-184 519.88,-184 519.88,-172 519.88,-172 519.88,-166 525.88,-160 531.88,-160 531.88,-160 561.88,-160 561.88,-160 567.88,-160 573.88,-166 573.88,-172 573.88,-172 573.88,-184 573.88,-184 573.88,-190 567.88,-196 561.88,-196"/>
<text text-anchor="middle" x="546.88" y="-172.2" font-family="Helvetica,sans-Serif" font-size="14.00">RTS</text>
</g>
<!-- m_ekf -->
<g id="node9" class="node">
<title>m_ekf</title>
<path fill="#ff9800" stroke="#ff9800" d="M561.88,-268C561.88,-268 531.88,-268 531.88,-268 525.88,-268 519.88,-262 519.88,-256 519.88,-256 519.88,-244 519.88,-244 519.88,-238 525.88,-232 531.88,-232 531.88,-232 561.88,-232 561.88,-232 567.88,-232 573.88,-238 573.88,-244 573.88,-244 573.88,-256 573.88,-256 573.88,-262 567.88,-268 561.88,-268"/>
<text text-anchor="middle" x="546.88" y="-244.2" font-family="Helvetica,sans-Serif" font-size="14.00">EKF</text>
</g>
<!-- m_ukf -->
<g id="node10" class="node">
<title>m_ukf</title>
<path fill="#ff9800" stroke="#ff9800" d="M561.88,-340C561.88,-340 531.88,-340 531.88,-340 525.88,-340 519.88,-334 519.88,-328 519.88,-328 519.88,-316 519.88,-316 519.88,-310 525.88,-304 531.88,-304 531.88,-304 561.88,-304 561.88,-304 567.88,-304 573.88,-310 573.88,-316 573.88,-316 573.88,-328 573.88,-328 573.88,-334 567.88,-340 561.88,-340"/>
<text text-anchor="middle" x="546.88" y="-316.2" font-family="Helvetica,sans-Serif" font-size="14.00">UKF</text>
</g>
<!-- m_pfbs -->
<g id="node11" class="node">
<title>m_pfbs</title>
<path fill="#ff9800" stroke="#ff9800" d="M582.25,-412C582.25,-412 511.5,-412 511.5,-412 505.5,-412 499.5,-406 499.5,-400 499.5,-400 499.5,-388 499.5,-388 499.5,-382 505.5,-376 511.5,-376 511.5,-376 582.25,-376 582.25,-376 588.25,-376 594.25,-382 594.25,-388 594.25,-388 594.25,-400 594.25,-400 594.25,-406 588.25,-412 582.25,-412"/>
<text text-anchor="middle" x="546.88" y="-388.2" font-family="Helvetica,sans-Serif" font-size="14.00">Bootstrap PF</text>
</g>
<!-- m_ffbsi -->
<g id="node12" class="node">
<title>m_ffbsi</title>
<path fill="#ff9800" stroke="#ff9800" d="M561.88,-484C561.88,-484 531.88,-484 531.88,-484 525.88,-484 519.88,-478 519.88,-472 519.88,-472 519.88,-460 519.88,-460 519.88,-454 525.88,-448 531.88,-448 531.88,-448 561.88,-448 561.88,-448 567.88,-448 573.88,-454 573.88,-460 573.88,-460 573.88,-472 573.88,-472 573.88,-478 567.88,-484 561.88,-484"/>
<text text-anchor="middle" x="546.88" y="-460.2" font-family="Helvetica,sans-Serif" font-size="14.00">FFBSi</text>
</g>
<!-- m_hmm&#45;&gt;gen_sdxl -->
<g id="edge12" class="edge">
<title>m_hmm&#45;&gt;gen_sdxl</title>
<path fill="none" stroke="black" d="M574.07,-891C579.07,-891 582.75,-891 582.75,-891 582.75,-891 582.75,-784.25 582.75,-784.25 582.75,-784.25 750.11,-784.25 750.11,-784.25"/>
<polygon fill="black" stroke="black" points="750.11,-787.75 760.11,-784.25 750.11,-780.75 750.11,-787.75"/>
</g>
<!-- gen_motionA -->
<g id="node22" class="node">
<title>gen_motionA</title>
<path fill="#9c27b0" stroke="#9c27b0" d="M849.75,-865C849.75,-865 767,-865 767,-865 761,-865 755,-859 755,-853 755,-853 755,-839 755,-839 755,-833 761,-827 767,-827 767,-827 849.75,-827 849.75,-827 855.75,-827 861.75,-833 861.75,-839 861.75,-839 861.75,-853 861.75,-853 861.75,-859 855.75,-865 849.75,-865"/>
<text text-anchor="middle" x="808.38" y="-847.7" font-family="Helvetica,sans-Serif" font-size="14.00" fill="white">Motion LoRA A</text>
<text text-anchor="middle" x="808.38" y="-832.7" font-family="Helvetica,sans-Serif" font-size="14.00" fill="white">(generic)</text>
</g>
<!-- m_hmm&#45;&gt;gen_motionA -->
<g id="edge13" class="edge">
<title>m_hmm&#45;&gt;gen_motionA</title>
<path fill="none" stroke="black" d="M573.96,-896C631.51,-896 760.75,-896 760.75,-896 760.75,-896 760.75,-876.99 760.75,-876.99"/>
<polygon fill="black" stroke="black" points="764.25,-876.99 760.75,-866.99 757.25,-876.99 764.25,-876.99"/>
</g>
<!-- gen_llama -->
<g id="node21" class="node">
<title>gen_llama</title>
<path fill="#9c27b0" stroke="#9c27b0" d="M837.75,-701.5C837.75,-701.5 779,-701.5 779,-701.5 773,-701.5 767,-695.5 767,-689.5 767,-689.5 767,-660.5 767,-660.5 767,-654.5 773,-648.5 779,-648.5 779,-648.5 837.75,-648.5 837.75,-648.5 843.75,-648.5 849.75,-654.5 849.75,-660.5 849.75,-660.5 849.75,-689.5 849.75,-689.5 849.75,-695.5 843.75,-701.5 837.75,-701.5"/>
<text text-anchor="middle" x="808.38" y="-684.2" font-family="Helvetica,sans-Serif" font-size="14.00" fill="white">Llama 3.1</text>
<text text-anchor="middle" x="808.38" y="-669.2" font-family="Helvetica,sans-Serif" font-size="14.00" fill="white">QLoRA</text>
<text text-anchor="middle" x="808.38" y="-654.2" font-family="Helvetica,sans-Serif" font-size="14.00" fill="white">(voiceover)</text>
</g>
<!-- m_bnn&#45;&gt;gen_llama -->
<g id="edge14" class="edge">
<title>m_bnn&#45;&gt;gen_llama</title>
<path fill="none" stroke="black" d="M587.75,-632.45C587.75,-644.72 587.75,-658.25 587.75,-658.25 587.75,-658.25 755.1,-658.25 755.1,-658.25"/>
<polygon fill="black" stroke="black" points="755.1,-661.75 765.1,-658.25 755.1,-654.75 755.1,-661.75"/>
</g>
<!-- m_anova -->
<g id="node16" class="node">
<title>m_anova</title>
<path fill="#e91e63" stroke="#e91e63" d="M566.88,-778C566.88,-778 526.88,-778 526.88,-778 520.88,-778 514.88,-772 514.88,-766 514.88,-766 514.88,-752 514.88,-752 514.88,-746 520.88,-740 526.88,-740 526.88,-740 566.88,-740 566.88,-740 572.88,-740 578.88,-746 578.88,-752 578.88,-752 578.88,-766 578.88,-766 578.88,-772 572.88,-778 566.88,-778"/>
<text text-anchor="middle" x="546.88" y="-760.7" font-family="Helvetica,sans-Serif" font-size="14.00">ANOVA</text>
<text text-anchor="middle" x="546.88" y="-745.7" font-family="Helvetica,sans-Serif" font-size="14.00">(PyMC)</text>
</g>
<!-- m_ipw -->
<g id="node17" class="node">
<title>m_ipw</title>
<path fill="#e91e63" stroke="#e91e63" d="M561.88,-850C561.88,-850 531.88,-850 531.88,-850 525.88,-850 519.88,-844 519.88,-838 519.88,-838 519.88,-826 519.88,-826 519.88,-820 525.88,-814 531.88,-814 531.88,-814 561.88,-814 561.88,-814 567.88,-814 573.88,-820 573.88,-826 573.88,-826 573.88,-838 573.88,-838 573.88,-844 567.88,-850 561.88,-850"/>
<text text-anchor="middle" x="546.88" y="-826.2" font-family="Helvetica,sans-Serif" font-size="14.00">IPW</text>
</g>
<!-- m_aipw -->
<g id="node18" class="node">
<title>m_aipw</title>
<path fill="#e91e63" stroke="#e91e63" d="M561.88,-994C561.88,-994 531.88,-994 531.88,-994 525.88,-994 519.88,-988 519.88,-982 519.88,-982 519.88,-970 519.88,-970 519.88,-964 525.88,-958 531.88,-958 531.88,-958 561.88,-958 561.88,-958 567.88,-958 573.88,-964 573.88,-970 573.88,-970 573.88,-982 573.88,-982 573.88,-988 567.88,-994 561.88,-994"/>
<text text-anchor="middle" x="546.88" y="-970.2" font-family="Helvetica,sans-Serif" font-size="14.00">AIPW</text>
</g>
<!-- gen_musicgen -->
<g id="node24" class="node">
<title>gen_musicgen</title>
<path fill="#9c27b0" stroke="#9c27b0" d="M838.5,-939C838.5,-939 778.25,-939 778.25,-939 772.25,-939 766.25,-933 766.25,-927 766.25,-927 766.25,-913 766.25,-913 766.25,-907 772.25,-901 778.25,-901 778.25,-901 838.5,-901 838.5,-901 844.5,-901 850.5,-907 850.5,-913 850.5,-913 850.5,-927 850.5,-927 850.5,-933 844.5,-939 838.5,-939"/>
<text text-anchor="middle" x="808.38" y="-921.7" font-family="Helvetica,sans-Serif" font-size="14.00" fill="white">MusicGen</text>
<text text-anchor="middle" x="808.38" y="-906.7" font-family="Helvetica,sans-Serif" font-size="14.00" fill="white">(audio bed)</text>
</g>
<!-- m_aipw&#45;&gt;gen_musicgen -->
<g id="edge16" class="edge">
<title>m_aipw&#45;&gt;gen_musicgen</title>
<path fill="none" stroke="black" d="M546.75,-957.76C546.75,-945.1 546.75,-930.5 546.75,-930.5 546.75,-930.5 754.24,-930.5 754.24,-930.5"/>
<polygon fill="black" stroke="black" points="754.24,-934 764.24,-930.5 754.24,-927 754.24,-934"/>
</g>
<!-- gen_motionB -->
<g id="node23" class="node">
<title>gen_motionB</title>
<path fill="#9c27b0" stroke="#9c27b0" d="M850.12,-612C850.12,-612 766.62,-612 766.62,-612 760.62,-612 754.62,-606 754.62,-600 754.62,-600 754.62,-586 754.62,-586 754.62,-580 760.62,-574 766.62,-574 766.62,-574 850.12,-574 850.12,-574 856.12,-574 862.12,-580 862.12,-586 862.12,-586 862.12,-600 862.12,-600 862.12,-606 856.12,-612 850.12,-612"/>
<text text-anchor="middle" x="808.38" y="-594.7" font-family="Helvetica,sans-Serif" font-size="14.00" fill="white">Motion LoRA B</text>
<text text-anchor="middle" x="808.38" y="-579.7" font-family="Helvetica,sans-Serif" font-size="14.00" fill="white">(ablations)</text>
</g>
<!-- m_genmatch2&#45;&gt;gen_motionB -->
<g id="edge15" class="edge">
<title>m_genmatch2&#45;&gt;gen_motionB</title>
<path fill="none" stroke="black" d="M546.75,-558.37C546.75,-569.25 546.75,-580.67 546.75,-580.67 546.75,-580.67 742.65,-580.67 742.65,-580.67"/>
<polygon fill="black" stroke="black" points="742.65,-584.17 752.65,-580.67 742.65,-577.17 742.65,-584.17"/>
</g>
<!-- output_ffmpeg -->
<g id="node25" class="node">
<title>output_ffmpeg</title>
<path fill="#4caf50" stroke="#4caf50" d="M1006.5,-783C1006.5,-783 972.5,-783 972.5,-783 966.5,-783 960.5,-777 960.5,-771 960.5,-771 960.5,-757 960.5,-757 960.5,-751 966.5,-745 972.5,-745 972.5,-745 1006.5,-745 1006.5,-745 1012.5,-745 1018.5,-751 1018.5,-757 1018.5,-757 1018.5,-771 1018.5,-771 1018.5,-777 1012.5,-783 1006.5,-783"/>
<text text-anchor="middle" x="989.5" y="-765.7" font-family="Helvetica,sans-Serif" font-size="14.00">ffmpeg</text>
<text text-anchor="middle" x="989.5" y="-750.7" font-family="Helvetica,sans-Serif" font-size="14.00">stitch</text>
</g>
<!-- gen_sdxl&#45;&gt;output_ffmpeg -->
<g id="edge17" class="edge">
<title>gen_sdxl&#45;&gt;output_ffmpeg</title>
<path fill="none" stroke="black" d="M855.02,-764C855.02,-764 948.51,-764 948.51,-764"/>
<polygon fill="black" stroke="black" points="948.51,-767.5 958.51,-764 948.51,-760.5 948.51,-767.5"/>
</g>
<!-- gen_llama&#45;&gt;output_ffmpeg -->
<g id="edge18" class="edge">
<title>gen_llama&#45;&gt;output_ffmpeg</title>
<path fill="none" stroke="black" d="M849.99,-675C903.53,-675 989.75,-675 989.75,-675 989.75,-675 989.75,-733.17 989.75,-733.17"/>
<polygon fill="black" stroke="black" points="986.25,-733.17 989.75,-743.17 993.25,-733.17 986.25,-733.17"/>
</g>
<!-- gen_motionA&#45;&gt;output_ffmpeg -->
<g id="edge19" class="edge">
<title>gen_motionA&#45;&gt;output_ffmpeg</title>
<path fill="none" stroke="black" d="M859.75,-826.57C859.75,-805.1 859.75,-773.5 859.75,-773.5 859.75,-773.5 948.54,-773.5 948.54,-773.5"/>
<polygon fill="black" stroke="black" points="948.54,-777 958.54,-773.5 948.54,-770 948.54,-777"/>
</g>
<!-- gen_motionB&#45;&gt;output_ffmpeg -->
<g id="edge20" class="edge">
<title>gen_motionB&#45;&gt;output_ffmpeg</title>
<path fill="none" stroke="black" d="M856.75,-612.48C856.75,-655.43 856.75,-754.5 856.75,-754.5 856.75,-754.5 948.52,-754.5 948.52,-754.5"/>
<polygon fill="black" stroke="black" points="948.52,-758 958.52,-754.5 948.52,-751 948.52,-758"/>
</g>
<!-- gen_musicgen&#45;&gt;output_ffmpeg -->
<g id="edge21" class="edge">
<title>gen_musicgen&#45;&gt;output_ffmpeg</title>
<path fill="none" stroke="black" d="M850.9,-920C904.51,-920 989.75,-920 989.75,-920 989.75,-920 989.75,-794.96 989.75,-794.96"/>
<polygon fill="black" stroke="black" points="993.25,-794.96 989.75,-784.96 986.25,-794.96 993.25,-794.96"/>
</g>
<!-- output_mp4 -->
<g id="node26" class="node">
<title>output_mp4</title>
<polygon fill="#ffd700" stroke="#ffd700" points="1278.75,-782 1108.5,-782 1104.5,-778 1104.5,-746 1274.75,-746 1278.75,-750 1278.75,-782"/>
<polyline fill="none" stroke="#ffd700" points="1274.75,-778 1104.5,-778"/>
<polyline fill="none" stroke="#ffd700" points="1274.75,-778 1274.75,-746"/>
<polyline fill="none" stroke="#ffd700" points="1274.75,-778 1278.75,-782"/>
<text text-anchor="middle" x="1191.62" y="-758.2" font-family="Helvetica,sans-Serif" font-size="14.00">ideal_temilola_movie.mp4</text>
</g>
<!-- output_ffmpeg&#45;&gt;output_mp4 -->
<g id="edge22" class="edge">
<title>output_ffmpeg&#45;&gt;output_mp4</title>
<path fill="none" stroke="black" d="M1018.89,-764C1018.89,-764 1092.93,-764 1092.93,-764"/>
<polygon fill="black" stroke="black" points="1092.93,-767.5 1102.93,-764 1092.93,-760.5 1092.93,-767.5"/>
</g>
</g>
</svg>
